<?xml version="1.0" encoding="UTF-8" standalone="no"?>
<svg
   xmlns:dc="http://purl.org/dc/elements/1.1/"
   xmlns:cc="http://creativecommons.org/ns#"
   xmlns:rdf="http://www.w3.org/1999/02/22-rdf-syntax-ns#"
   xmlns:svg="http://www.w3.org/2000/svg"
   xmlns="http://www.w3.org/2000/svg"
   version="1.0"
   width="1050"
   height="1480"
   id="svg2211">
  <defs
     id="defs2214" />
  <path
     d="m 198.72142,821.67592 8.06088,0 0,2.45265 -8.06088,0 0,-2.45265 m 13.36991,7.0738 4.93526,0 0,-17.03397 -5.36894,1.07677 0,-2.75176 5.33899,-1.07677 3.021,0 0,19.78573 4.93526,0 0,2.54239 -12.86157,0 0,-2.54239"
     id="flowRoot13185"
     style="font-size:32px;font-family:DejaVu Sans" />
  <path
     d="m 400.89963,746.72692 4.60918,0 0,-15.9088 -5.0143,1.00565 0,-2.56999 4.98641,-1.00565 2.82136,0 0,18.47879 4.60918,0 0,2.37445 -12.01183,0 0,-2.37445"
     id="flowRoot13145"
     style="font-size:32px;font-family:DejaVu Sans" />
  <path
     d="m 347.7738,923.45633 10.20885,0 0,3.10621 -10.20885,0 0,-3.10621 m 16.93257,8.95876 6.25036,0 0,-21.573 -6.7996,1.3637 0,-3.48501 6.76166,-1.36371 3.826,0 0,25.05802 6.25036,0 0,3.21985 -16.28878,0 0,-3.21985"
     id="flowRoot13097"
     style="font-size:32px;font-family:DejaVu Sans" />
  <path
     d="M 54.58231,1273.5872 536.62474,110.55401 302.02211,1419.14"
     id="path2222"
     style="fill:none;stroke:#0078cb;stroke-width:4.4000001;stroke-linecap:butt;stroke-linejoin:miter;stroke-miterlimit:4;stroke-opacity:1" />
  <path
     d="m 54,323 944,0"
     id="path2248"
     style="fill:none;stroke:#000000;stroke-width:1px;stroke-linecap:butt;stroke-linejoin:miter;stroke-opacity:1" />
  <path
     d="m 54,331.93979 943.99999,0"
     id="path2250"
     style="fill:none;stroke:#000000;stroke-width:1px;stroke-linecap:butt;stroke-linejoin:miter;stroke-opacity:1" />
  <path
     d="m 54,343.93979 943.99999,0"
     id="path2252"
     style="fill:none;stroke:#000000;stroke-width:1px;stroke-linecap:butt;stroke-linejoin:miter;stroke-opacity:1" />
  <path
     d="m 54,355.93979 943.99999,0"
     id="path2254"
     style="fill:none;stroke:#000000;stroke-width:1px;stroke-linecap:butt;stroke-linejoin:miter;stroke-opacity:1" />
  <path
     d="m 54,367.93979 943.99999,0"
     id="path2256"
     style="fill:none;stroke:#000000;stroke-width:1px;stroke-linecap:butt;stroke-linejoin:miter;stroke-opacity:1" />
  <path
     d="m 54,381.93979 943.99999,0"
     id="path2258"
     style="fill:none;stroke:#000000;stroke-width:1px;stroke-linecap:butt;stroke-linejoin:miter;stroke-opacity:1" />
  <path
     d="m 54,395.93979 943.99999,0"
     id="path2260"
     style="fill:none;stroke:#000000;stroke-width:1px;stroke-linecap:butt;stroke-linejoin:miter;stroke-opacity:1" />
  <path
     d="m 54,411.93979 943.99999,0"
     id="path2262"
     style="fill:none;stroke:#000000;stroke-width:1px;stroke-linecap:butt;stroke-linejoin:miter;stroke-opacity:1" />
  <path
     d="m 54,431.93979 943.99999,0"
     id="path2264"
     style="fill:none;stroke:#000000;stroke-width:1px;stroke-linecap:butt;stroke-linejoin:miter;stroke-opacity:1" />
  <path
     d="m 54,453.93979 943.99999,0"
     id="path2266"
     style="fill:none;stroke:#000000;stroke-width:1px;stroke-linecap:butt;stroke-linejoin:miter;stroke-opacity:1" />
  <path
     d="M 55.414213,480.18243 997.99999,470.28294"
     id="path2268"
     style="fill:none;stroke:#000000;stroke-width:1px;stroke-linecap:butt;stroke-linejoin:miter;stroke-opacity:1" />
  <path
     d="M 58.242641,507.59664 996.58578,496.28294"
     id="path2270"
     style="fill:none;stroke:#000000;stroke-width:1px;stroke-linecap:butt;stroke-linejoin:miter;stroke-opacity:1" />
  <path
     d="M 58.242641,542.42507 999.4142,524.0403"
     id="path2272"
     style="fill:none;stroke:#000000;stroke-width:1px;stroke-linecap:butt;stroke-linejoin:miter;stroke-opacity:1" />
  <path
     d="M 58.242641,579.83928 995.17156,558.62608"
     id="path2274"
     style="fill:none;stroke:#000000;stroke-width:1px;stroke-linecap:butt;stroke-linejoin:miter;stroke-opacity:1" />
  <path
     d="M 58.242641,620.42507 997.99999,597.79765"
     id="path2276"
     style="fill:none;stroke:#000000;stroke-width:1px;stroke-linecap:butt;stroke-linejoin:miter;stroke-opacity:1" />
  <path
     d="M 54,671.83928 995.17156,647.79765"
     id="path2278"
     style="fill:none;stroke:#000000;stroke-width:1px;stroke-linecap:butt;stroke-linejoin:miter;stroke-opacity:1" />
  <path
     d="M 58.242641,732.08193 995.17156,703.79765"
     id="path2280"
     style="fill:none;stroke:#000000;stroke-width:1px;stroke-linecap:butt;stroke-linejoin:miter;stroke-opacity:1" />
  <path
     d="M 54,807.83928 997.99999,779.55501"
     id="path2282"
     style="fill:none;stroke:#666d6f;stroke-width:4.4000001;stroke-linecap:butt;stroke-linejoin:miter;stroke-miterlimit:4;stroke-opacity:1" />
  <path
     d="M 54,912.08193 992.34314,872.48395"
     id="path2284"
     style="fill:none;stroke:#000000;stroke-width:1px;stroke-linecap:butt;stroke-linejoin:miter;stroke-opacity:1" />
  <path
     d="M 56.828427,1043.9814 993.75735,997.31238"
     id="path2286"
     style="fill:none;stroke:#000000;stroke-width:1px;stroke-linecap:butt;stroke-linejoin:miter;stroke-opacity:1" />
  <path
     d="M 58.242641,1238.3662 996.58578,1169.0697"
     id="path2288"
     style="fill:none;stroke:#000000;stroke-width:1px;stroke-linecap:butt;stroke-linejoin:miter;stroke-opacity:1" />
  <path
     d="M 998.43478,1283.0101 52.325902,679.14091"
     id="path2290"
     style="fill:none;stroke:#0078cb;stroke-width:4.4000001;stroke-linecap:butt;stroke-linejoin:miter;stroke-miterlimit:4;stroke-opacity:1" />
  <path
     d="M 55.740115,1251.8974 803.2733,472.66573"
     id="path2292"
     style="fill:none;stroke:#0078cb;stroke-width:4.4000001;stroke-linecap:butt;stroke-linejoin:miter;stroke-miterlimit:4;stroke-opacity:1" />
  <path
     d="M 936.20938,479.7368 57.982756,892.68716"
     id="path2294"
     style="fill:none;stroke:#0078cb;stroke-width:4.4000001;stroke-linecap:butt;stroke-linejoin:miter;stroke-miterlimit:4;stroke-opacity:1" />
  <path
     d="M 995.60635,1367.8629 264.2153,537.13377"
     id="path2296"
     style="fill:none;stroke:#0078cb;stroke-width:4.4000001;stroke-linecap:butt;stroke-linejoin:miter;stroke-miterlimit:4;stroke-opacity:1" />
  <path
     d="M 536.46967,111.23223 895,1417"
     id="path11135"
     style="fill:none;stroke:#0078cb;stroke-width:4.4000001;stroke-linecap:butt;stroke-linejoin:miter;stroke-miterlimit:4;stroke-opacity:1" />
  <path
     d="M 537,111.34835 603,1421"
     id="path11133"
     style="fill:none;stroke:#000000;stroke-width:1px;stroke-linecap:butt;stroke-linejoin:miter;stroke-opacity:1" />
  <path
     d="M 536.49861,109.8469 998.85627,591.30835"
     id="path2228"
     style="fill:none;stroke:#000000;stroke-width:1px;stroke-linecap:butt;stroke-linejoin:miter;stroke-opacity:1" />
  <path
     d="M 998.85627,1026.1474 536.9783,110.93338 999.10853,736.81053"
     id="path2226"
     style="fill:none;stroke:#000000;stroke-width:1px;stroke-linecap:butt;stroke-linejoin:miter;stroke-opacity:1" />
  <path
     d="M 54.58231,649.52948 536.72604,109.16462 47.304668,860.58108"
     id="path2220"
     style="fill:none;stroke:#000000;stroke-width:1px;stroke-linecap:butt;stroke-linejoin:miter;stroke-opacity:1" />
  <path
     d="M 997.02056,1391.9045 C 873.85052,1233.4859 761.02098,1071.0461 572.75649,937.94199 471.40482,873.54892 408.70312,909.64577 326.68333,895.51559 241.9257,886.04914 230.96545,843.76336 248.82559,804.29095 284.60371,729.50919 353.97784,726.59731 426.05291,721.70367 492.81523,716.7567 562.89899,704.89071 661.85195,616.91551 752.7884,534.51315 817.9737,401.79087 810.69793,315.33447 799.56551,233.27114 758.19251,163.77311 654.78088,123.35498 607.39089,109.28989 586.6331,108.59523 535.98694,107.79863"
     id="path2298"
     style="fill:none;stroke:#d20000;stroke-width:6.0999999;stroke-linecap:butt;stroke-linejoin:miter;stroke-miterlimit:4;stroke-opacity:1" />
  <path
     d="m 322.12508,1052.169 9.45677,0 0,2.8773 -9.45677,0 0,-2.8773 m 18.12393,8.2988 12.36928,0 0,2.9825 -16.63274,0 0,-2.9825 c 1.34521,-1.392 3.17572,-3.2576 5.49166,-5.5969 2.32762,-2.351 3.78971,-3.8658 4.38619,-4.5441 1.13455,-1.275 1.92416,-2.3511 2.36859,-3.2283 0.45612,-0.889 0.68428,-1.7603 0.68428,-2.6142 0,-1.392 -0.49125,-2.5265 -1.47377,-3.4038 -0.97084,-0.8772 -2.23992,-1.3158 -3.80723,-1.3158 -1.11121,0 -2.28675,0.193 -3.52662,0.5789 -1.2281,0.3861 -2.544,0.9709 -3.9476,1.7545 l 0,-3.5791 c 1.42696,-0.5731 2.76037,-1.006 4.00025,-1.2984 1.23989,-0.2924 2.37445,-0.4386 3.40368,-0.4386 2.71365,0 4.87755,0.6784 6.49169,2.0352 1.61414,1.3569 2.42115,3.1698 2.42126,5.439 -1.1e-4,1.076 -0.20481,2.0996 -0.6141,3.0703 -0.39772,0.9592 -1.12872,2.0938 -2.1931,3.4038 -0.2925,0.3391 -1.22236,1.3217 -2.78967,2.9475 -1.56742,1.6142 -3.77803,3.8774 -6.63205,6.79"
     id="flowRoot13089"
     style="font-size:32px;font-family:DejaVu Sans" />
  <path
     d="m 384.92,809.39123 c -1.86238,2e-5 -3.26518,0.91928 -4.20828,2.75774 -0.93119,1.82659 -1.39684,4.57837 -1.39684,8.25535 0,3.66506 0.46565,6.41684 1.39684,8.25533 0.9431,1.82658 2.3459,2.73985 4.20828,2.73985 1.87429,0 3.27698,-0.91327 4.20828,-2.73985 0.94311,-1.83849 1.41461,-4.59027 1.41461,-8.25533 0,-3.67698 -0.4715,-6.42876 -1.41461,-8.25535 -0.9313,-1.83846 -2.33399,-2.75772 -4.20828,-2.75774 m 0,-2.8652 c 2.99642,4e-5 5.28262,1.18789 6.85847,3.56359 1.58778,2.36381 2.38178,5.80203 2.38178,10.3147 0,4.50075 -0.794,7.93898 -2.38178,10.3147 -1.57585,2.36378 -3.86205,3.54568 -6.85847,3.54568 -2.99653,0 -5.28869,-1.1819 -6.87647,-3.54568 -1.57585,-2.37572 -2.36378,-5.81395 -2.36378,-10.3147 0,-4.51267 0.78793,-7.95089 2.36378,-10.3147 1.58778,-2.3757 3.87994,-3.56355 6.87647,-3.56359"
     id="flowRoot13105"
     style="font-size:32px;font-family:DejaVu Sans" />
  <path
     d="m 287.22969,1244.0686 11.12845,0 0,3.386 -11.12845,0 0,-3.386 m 30.37091,-3.3447 c 1.9958,0.4267 3.55119,1.3145 4.66603,2.6633 1.12871,1.349 1.69307,3.0144 1.69307,4.9965 0,3.0419 -1.04613,5.3956 -3.13826,7.0611 -2.09225,1.6654 -5.06534,2.4982 -8.91925,2.4982 -1.29388,0 -2.629,-0.1308 -4.00547,-0.3923 -1.36259,-0.2478 -2.77342,-0.6263 -4.23248,-1.1356 l 0,-4.026 c 1.1562,0.6744 2.42247,1.1837 3.79894,1.5278 1.37647,0.3441 2.81478,0.5162 4.31507,0.5162 2.61526,0 4.60418,-0.5162 5.96678,-1.5485 1.37647,-1.0323 2.06464,-2.5326 2.06477,-4.5009 -1.3e-4,-1.8169 -0.64007,-3.2346 -1.92021,-4.2532 -1.26627,-1.0323 -3.03506,-1.5484 -5.3061,-1.5485 l -3.59254,0 0,-3.4273 3.75771,0 c 2.0509,0 3.62003,-0.406 4.70739,-1.2181 1.08735,-0.8258 1.6311,-2.0096 1.6311,-3.5512 0,-1.5828 -0.56436,-2.7941 -1.69308,-3.6338 -1.11484,-0.8533 -2.71845,-1.28 -4.81058,-1.28 -1.14246,0 -2.3675,0.1239 -3.67499,0.3716 -1.30763,0.2478 -2.74608,0.6332 -4.3152,1.1562 l 0,-3.7164 c 1.58287,-0.4404 3.06254,-0.7707 4.43901,-0.991 1.39021,-0.2202 2.69784,-0.3303 3.92275,-0.3303 3.16587,0 5.67093,0.7226 7.51543,2.1679 1.84437,1.4315 2.76655,3.3722 2.76655,5.8222 0,1.7068 -0.48864,3.1521 -1.46593,4.3358 -0.97728,1.17 -2.3675,1.9821 -4.17051,2.4363"
     id="flowRoot13113"
     style="font-size:32px;font-family:DejaVu Sans" />
  <path
     d="m 553.26786,822.90794 5.1562,0 0,-17.79687 -5.6094,1.125 0,-2.875 5.5782,-1.125 3.1562,0 0,20.67187 5.1562,0 0,2.65625 -13.4374,0 0,-2.65625"
     id="flowRoot13121"
     style="font-size:32px;font-family:DejaVu Sans" />
  <path
     d="m 711.4212,818.92356 11.0156,0 0,2.65625 -14.8124,0 0,-2.65625 c 1.1979,-1.23958 2.8281,-2.90103 4.8906,-4.98437 2.0729,-2.09374 3.375,-3.4427 3.9062,-4.04688 1.0104,-1.1354 1.7136,-2.09373 2.1094,-2.875 0.4062,-0.79165 0.6094,-1.56769 0.6094,-2.32812 0,-1.23957 -0.4375,-2.24998 -1.3125,-3.03125 -0.8646,-0.78123 -1.9948,-1.17186 -3.3907,-1.17188 -0.9895,2e-5 -2.0364,0.1719 -3.1406,0.51563 -1.0937,0.34377 -2.2656,0.8646 -3.5156,1.5625 l 0,-3.1875 c 1.2708,-0.5104 2.4583,-0.89581 3.5625,-1.15625 1.1042,-0.26039 2.1146,-0.3906 3.0313,-0.39063 2.4166,3e-5 4.3437,0.60419 5.7812,1.8125 1.4375,1.20836 2.1562,2.82294 2.1562,4.84375 0,0.95835 -0.1823,1.86981 -0.5468,2.73438 -0.3542,0.85418 -1.0052,1.86459 -1.9532,3.03125 -0.2604,0.30209 -1.0885,1.17709 -2.4843,2.625 -1.3959,1.43751 -3.3646,3.45313 -5.9063,6.04687"
     id="flowRoot13129"
     style="font-size:32px;font-family:DejaVu Sans" />
  <path
     d="m 1124.9844,830.31785 c 1.5104,0.32293 2.6875,0.9948 3.5312,2.01562 0.8542,1.02085 1.2813,2.28126 1.2813,3.78125 0,2.30209 -0.7917,4.08334 -2.375,5.34375 -1.5834,1.26042 -3.8334,1.89063 -6.75,1.89063 -0.9792,0 -1.9896,-0.099 -3.0313,-0.29688 -1.0312,-0.1875 -2.0989,-0.47395 -3.2031,-0.85937 l 0,-3.04688 c 0.875,0.51042 1.8333,0.89584 2.875,1.15625 1.0417,0.26042 2.1302,0.39063 3.2656,0.39063 1.9792,0 3.4844,-0.39062 4.5157,-1.17188 1.0416,-0.78124 1.5624,-1.91666 1.5624,-3.40625 0,-1.37499 -0.4843,-2.4479 -1.4531,-3.21875 -0.9583,-0.78124 -2.2969,-1.17186 -4.0156,-1.17187 l -2.7187,0 0,-2.59375 2.8437,0 c 1.5521,10e-6 2.7396,-0.30728 3.5625,-0.92188 0.8229,-0.62498 1.2344,-1.52081 1.2344,-2.6875 0,-1.19789 -0.4271,-2.11456 -1.2813,-2.75 -0.8437,-0.64581 -2.0573,-0.96873 -3.6406,-0.96875 -0.8646,2e-5 -1.7917,0.0938 -2.7813,0.28125 -0.9895,0.18752 -2.0781,0.47919 -3.2656,0.875 l 0,-2.8125 c 1.1979,-0.33331 2.3177,-0.58331 3.3594,-0.75 1.0521,-0.16664 2.0417,-0.24997 2.9688,-0.25 2.3958,3e-5 4.2916,0.5469 5.6874,1.64063 1.3959,1.08335 2.0938,2.5521 2.0938,4.40625 0,1.29168 -0.3698,2.38543 -1.1094,3.28125 -0.7396,0.88543 -1.7917,1.50001 -3.1562,1.84375"
     transform="translate(-249.51926,-23.933647)"
     id="flowRoot13137"
     style="font-size:32px;font-family:DejaVu Sans" />
  <path
     d="m 415.57046,685.58157 9.1751,0 0,2.21244 -12.33753,0 0,-2.21244 c 0.99775,-1.03247 2.35558,-2.41632 4.07347,-4.15158 1.72656,-1.74391 2.8111,-2.86749 3.25355,-3.37072 0.84158,-0.94569 1.42729,-1.74391 1.75696,-2.39464 0.33833,-0.65938 0.50758,-1.30576 0.50758,-1.93913 0,-1.03247 -0.3644,-1.87406 -1.09321,-2.52479 -0.72014,-0.6507 -1.6615,-0.97606 -2.82417,-0.97608 -0.82418,2e-5 -1.69616,0.14318 -2.61587,0.42948 -0.91096,0.28633 -1.88706,0.72014 -2.92821,1.30143 l 0,-2.65493 c 1.05848,-0.42512 2.04757,-0.74613 2.96728,-0.96306 0.9197,-0.21688 1.76129,-0.32534 2.52482,-0.32536 2.01283,2e-5 3.61795,0.50324 4.81527,1.50966 1.19732,1.00647 1.79594,2.35128 1.79594,4.03445 0,0.79823 -0.15184,1.5574 -0.45544,2.27752 -0.29502,0.71146 -0.83725,1.55305 -1.62686,2.52479 -0.21689,0.25161 -0.90663,0.98042 -2.06922,2.18641 -1.16267,1.19733 -2.80243,2.87617 -4.91946,5.03655"
     id="flowRoot13153"
     style="font-size:32px;font-family:DejaVu Sans" />
  <path
     d="m 433.82447,624.19525 c 1.12795,0.24116 2.007,0.74291 2.63708,1.50525 0.63791,0.76237 0.95686,1.70363 0.95686,2.82382 0,1.71918 -0.59123,3.04941 -1.77363,3.99068 -1.18248,0.94127 -2.86277,1.41191 -5.04087,1.41191 -0.73126,0 -1.48582,-0.0739 -2.26375,-0.22171 -0.7701,-0.14002 -1.56745,-0.35394 -2.39206,-0.64177 l 0,-2.27539 c 0.65345,0.38118 1.3691,0.669 2.14703,0.86348 0.77794,0.19448 1.59082,0.29172 2.43874,0.29172 1.47805,0 2.60213,-0.29172 3.37229,-0.87516 0.77787,-0.58342 1.1668,-1.43135 1.1668,-2.54376 0,-1.02684 -0.36168,-1.82808 -1.08517,-2.40375 -0.71565,-0.58342 -1.71531,-0.87514 -2.99883,-0.87514 l -2.03031,0 0,-1.937 2.12366,0 c 1.1591,10e-6 2.04592,-0.22948 2.66046,-0.68846 0.61453,-0.46673 0.92184,-1.13573 0.92184,-2.00701 0,-0.89457 -0.31896,-1.57914 -0.95687,-2.05368 -0.63007,-0.48229 -1.53638,-0.72344 -2.71878,-0.72346 -0.64568,2e-5 -1.33803,0.07 -2.07706,0.21004 -0.73895,0.14004 -1.55191,0.35785 -2.43873,0.65344 l 0,-2.10036 c 0.89459,-0.24891 1.73085,-0.43561 2.50878,-0.56009 0.7857,-0.12445 1.52473,-0.18668 2.21708,-0.1867 1.78917,2e-5 3.20495,0.40842 4.24732,1.22521 1.04245,0.80904 1.56364,1.9059 1.56364,3.29057 0,0.96461 -0.27616,1.78142 -0.82849,2.45041 -0.55233,0.66124 -1.33803,1.1202 -2.35703,1.37691"
     id="flowRoot13161"
     style="font-size:32px;font-family:DejaVu Sans" />
  <path
     d="m 439.53404,577.68452 -5.85928,9.15649 5.85928,0 0,-9.15649 m -0.60895,-2.02202 2.91816,0 0,11.17851 2.44708,0 0,1.93011 -2.44708,0 0,4.04402 -2.30921,0 0,-4.04402 -7.74342,0 0,-2.2403 7.13447,-10.86832"
     id="flowRoot13169"
     style="font-size:32px;font-family:DejaVu Sans" />
  <path
     d="m 443.26059,538.30326 6.9646,0 0,1.49303 -5.33979,0 0,3.21442 c 0.25761,-0.0878 0.51521,-0.15222 0.77287,-0.19322 0.2576,-0.0468 0.5152,-0.0702 0.77286,-0.0703 1.46372,1e-5 2.62302,0.40108 3.47783,1.20321 0.85487,0.80214 1.28228,1.88826 1.28228,3.25832 0,1.41107 -0.43915,2.50889 -1.31735,3.29346 -0.87831,0.77872 -2.11663,1.16808 -3.71504,1.16808 -0.55039,0 -1.11247,-0.0468 -1.68624,-0.14052 -0.56793,-0.0937 -1.15637,-0.2342 -1.76528,-0.42156 l 0,-1.78286 c 0.5269,0.2869 1.07144,0.50061 1.63353,0.64112 0.56208,0.14052 1.15637,0.21079 1.78287,0.21079 1.01287,0 1.81502,-0.2664 2.40639,-0.79921 0.59136,-0.53281 0.88702,-1.25591 0.88702,-2.1693 0,-0.91337 -0.29566,-1.63647 -0.88702,-2.16929 -0.59137,-0.5328 -1.39352,-0.7992 -2.40639,-0.7992 -0.47429,0 -0.94852,0.0527 -1.4228,0.15808 -0.46839,0.1054 -0.94852,0.26934 -1.44034,0.49183 l 0,-6.58692"
     id="flowRoot13177"
     style="font-size:32px;font-family:DejaVu Sans" />
  <path
     d="m 723.06848,1287.532 -8.73718,25.7031 c -1.70333,5.0131 -2.4681,8.169 -2.29431,9.4678 0.1737,1.2988 0.91497,2.3356 2.22381,3.1104 1.30876,0.7747 4.05951,1.1621 8.25226,1.1621 l -0.85876,2.5293 -47.09961,0 0.85876,-2.5293 c 4.28385,0 7.32512,-0.3988 9.12384,-1.1963 1.79869,-0.7975 3.22213,-1.8343 4.27033,-3.1104 1.04816,-1.276 2.42389,-4.4205 4.12719,-9.4336 l 20.44373,-60.1562 c 1.70324,-5.0129 2.46801,-8.1689 2.29431,-9.4678 -0.17379,-1.2987 -0.90367,-2.3355 -2.18963,-3.1103 -1.28606,-0.7747 -4.0482,-1.1621 -8.28644,-1.1621 l 0.85876,-2.5293 40.40039,0 c 13.30721,10e-5 22.04936,2.3698 26.2265,7.1093 4.17694,4.7397 5.05778,10.6642 2.64252,17.7735 -2.04519,6.0157 -5.66396,11.1654 -10.85632,15.4492 -5.19255,4.2839 -11.3335,7.2006 -18.42285,8.75 -4.79093,1.0938 -12.45002,1.6407 -22.9773,1.6406 l 0,0 z M 738.49207,1242.1414 724.88,1282.2 c 1.47252,0.091 2.59618,0.1368 3.37098,0.1367 5.55983,10e-5 10.4048,-1.652 14.53491,-4.9561 4.12997,-3.3039 7.37276,-8.4195 9.72839,-15.3466 2.33838,-6.8815 2.54559,-11.9173 0.62165,-15.1075 -1.92412,-3.19 -5.87115,-4.785 -11.84113,-4.7851 l -2.80273,0 z"
     transform="translate(47.5,-43.5)"
     id="flowRoot4453" />
  <path
     d="m 809.6001,1325.5581 -10.30689,30.3242 c -0.77362,2.2787 -1.16725,3.7325 -1.18091,4.3614 -0.0137,0.6289 0.23041,1.1438 0.7323,1.5449 0.50186,0.401 1.45461,0.6016 2.85828,0.6016 l 0.84766,0 -0.34351,1.0117 -19.52344,0 0.34351,-1.0117 0.98437,0 c 1.58594,0 2.77824,-0.1823 3.57691,-0.5469 0.79865,-0.3646 1.42471,-0.8659 1.87817,-1.5039 0.45344,-0.638 1.07665,-2.1237 1.86963,-4.4571 l 6.53345,-19.2226 c 0.58217,-1.7135 0.86416,-2.7845 0.84595,-3.2129 -0.0183,-0.4284 -0.19969,-0.7929 -0.54432,-1.0938 -0.34466,-0.3007 -0.80865,-0.4511 -1.39196,-0.4511 -0.92971,0 -2.15904,0.2917 -3.68799,0.875 l -0.15723,-0.9844 15.76367,-6.2344 0.90235,0 z"
     transform="translate(-6,-56)"
     id="flowRoot4461" />
  <path
     d="m 715.63013,1277.3132 -7.48902,22.0312 c -1.45999,4.2969 -2.11551,7.002 -1.96655,8.1152 0.14889,1.1133 0.78427,2.002 1.90613,2.6661 1.12179,0.664 3.47957,0.9961 7.07336,0.9961 l -0.73608,2.1679 -40.37109,0 0.73608,-2.1679 c 3.67187,0 6.27868,-0.3418 7.82043,-1.0254 1.54174,-0.6836 2.76183,-1.5723 3.66028,-2.6661 0.89842,-1.0937 2.07762,-3.789 3.5376,-8.0859 l 17.52319,-51.5625 c 1.45993,-4.2968 2.11544,-7.0019 1.96656,-8.1152 -0.14897,-1.1132 -0.77458,-2.0019 -1.87684,-2.666 -1.10233,-0.664 -3.46988,-0.9961 -7.10266,-0.9961 l 0.73609,-2.168 34.6289,0 c 11.40618,10e-5 18.89946,2.0313 22.47986,6.0937 3.58023,4.0626 4.33524,9.1407 2.26502,15.2344 -1.75302,5.1563 -4.85482,9.5704 -9.30542,13.2422 -4.45076,3.6719 -9.71443,6.1719 -15.79102,7.5 -4.1065,0.9375 -10.67144,1.4063 -19.69482,1.4063 l 0,0 z m 13.22021,-38.9063 -11.66748,34.3359 c 1.26216,0.078 2.22529,0.1173 2.88941,0.1172 4.76557,1e-4 8.91839,-1.4159 12.45849,-4.248 3.53998,-2.832 6.31951,-7.2168 8.33862,-13.1543 2.00433,-5.8984 2.18194,-10.2148 0.53284,-12.9492 -1.64924,-2.7343 -5.03241,-4.1015 -10.14953,-4.1016 l -2.40235,0 z"
     transform="translate(-294.23992,-293.76901)"
     id="flowRoot4489"
     style="font-size:120px" />
  <path
     d="m 801.6875,1363.4019 -21.82031,0 0.20508,-0.6016 c 9.39712,-7.9661 15.27887,-13.3255 17.64526,-16.0781 2.36635,-2.7526 3.99558,-5.4414 4.88769,-8.0664 0.65053,-1.9141 0.59869,-3.5046 -0.15551,-4.7715 -0.75426,-1.2669 -1.98814,-1.9004 -3.70166,-1.9004 -2.80731,0 -5.46307,1.4037 -7.96729,4.2109 l -0.89038,-0.3554 c 2.17382,-3.5 4.54845,-6.0885 7.1239,-7.7657 2.57542,-1.677 5.17564,-2.5155 7.80066,-2.5156 1.87758,10e-5 3.44244,0.4376 4.69458,1.3125 1.25209,0.8751 2.05673,2.0736 2.41394,3.5957 0.35715,1.5222 0.31015,2.9486 -0.14099,4.2793 -0.8249,2.4245 -2.33621,4.8855 -4.53393,7.3828 -2.98734,3.3724 -8.60476,8.0756 -16.8523,14.1094 l 8.01172,0 c 1.96873,0 3.27724,-0.082 3.92554,-0.2461 0.64825,-0.164 1.23015,-0.442 1.74572,-0.834 0.51552,-0.3919 1.29738,-1.2168 2.34558,-2.4746 l 0.98438,0 -5.72168,10.7188 z"
     transform="translate(-360.23992,-320.76901)"
     id="flowRoot4497" />
  <path
     d="m 702.61301,1259.4302 -5.30472,15.6054 c -1.03417,3.0436 -1.49849,4.9597 -1.39298,5.7483 0.10547,0.7886 0.55553,1.4181 1.35018,1.8884 0.7946,0.4704 2.4647,0.7056 5.0103,0.7056 l -0.5214,1.5357 -28.59619,0 0.5214,-1.5357 c 2.6009,0 4.44739,-0.2421 5.53947,-0.7263 1.09206,-0.4842 1.95629,-1.1137 2.5927,-1.8884 0.63638,-0.7748 1.47164,-2.684 2.5058,-5.7276 l 12.41226,-36.5234 c 1.03411,-3.0436 1.49843,-4.9597 1.39297,-5.7483 -0.10551,-0.7885 -0.54865,-1.418 -1.32942,-1.8884 -0.78082,-0.4704 -2.45783,-0.7055 -5.03105,-0.7056 l 0.52139,-1.5356 24.52881,0 c 8.07937,0 13.38711,1.4388 15.92323,4.3164 2.536,2.8776 3.0708,6.4746 1.60439,10.791 -1.24172,3.6524 -3.43883,6.779 -6.59134,9.3799 -3.15262,2.6009 -6.88105,4.3717 -11.1853,5.3125 -2.90878,0.664 -7.55894,0.9961 -13.9505,0.9961 l 0,0 z m 9.36432,-27.5586 -8.26447,24.3212 c 0.89403,0.055 1.57625,0.083 2.04666,0.083 3.37561,0 6.3172,-1.003 8.82477,-3.0091 2.50748,-2.006 4.47632,-5.1118 5.90652,-9.3176 1.41973,-4.178 1.54554,-7.2355 0.37743,-9.1724 -1.16821,-1.9368 -3.56463,-2.9052 -7.18925,-2.9052 l -1.70166,0 z"
     transform="translate(-469.09937,-516.87032)"
     id="flowRoot4509"
     style="font-size:80px" />
  <path
     d="m 788.93213,1337.1487 0.23193,-0.6836 c 1.63004,-0.4297 2.79459,-0.8301 3.49365,-1.2012 0.69905,-0.3711 1.3863,-0.9375 2.06177,-1.6992 0.67544,-0.7617 1.14623,-1.5332 1.41236,-2.3145 0.367,-1.0807 0.28827,-2.0084 -0.23621,-2.7832 -0.52451,-0.7747 -1.3727,-1.1621 -2.54456,-1.1621 -1.82293,0 -3.69996,0.9636 -5.6311,2.8906 l -0.63599,-0.2539 c 1.67643,-2.1744 3.43302,-3.8085 5.26978,-4.9023 1.83674,-1.0937 3.65355,-1.6406 5.45044,-1.6406 1.83592,0 3.15916,0.5599 3.96973,1.6796 0.81052,1.1199 0.96148,2.4285 0.45288,3.9258 -0.33206,0.9766 -0.92857,1.9174 -1.78955,2.8223 -0.86103,0.905 -2.00116,1.7025 -3.42041,2.3926 1.27113,0.7422 2.12237,1.6569 2.55371,2.7441 0.43129,1.0873 0.36822,2.4512 -0.18921,4.0918 -0.93834,2.7604 -2.73541,5.1074 -5.39124,7.041 -2.65585,1.9336 -5.66346,2.9004 -9.02282,2.9004 -2.23959,0 -3.74757,-0.3711 -4.52393,-1.1133 -0.56478,-0.5208 -0.70801,-1.1914 -0.42969,-2.0117 0.20345,-0.5989 0.59204,-1.11 1.16577,-1.5332 0.57373,-0.4232 1.14054,-0.6348 1.70044,-0.6348 0.42969,0 0.80241,0.091 1.11817,0.2735 0.17252,0.1042 0.71776,0.6738 1.63574,1.709 0.91796,1.0351 1.93033,1.5527 3.03711,1.5527 0.96353,0 1.91975,-0.3809 2.86865,-1.1426 0.94888,-0.7617 1.6223,-1.7285 2.02026,-2.9004 0.60627,-1.7838 0.53995,-3.4277 -0.19897,-4.9316 -0.73895,-1.5039 -2.21518,-2.5423 -4.42871,-3.1152 l 0,0 z"
     transform="translate(-548.09937,-568.87032)"
     id="flowRoot4517" />
  <path
     d="m 697.77808,1252.7879 -4.49341,13.2187 c -0.876,2.5782 -1.26931,4.2012 -1.17993,4.8692 0.0893,0.668 0.47056,1.2012 1.14367,1.5996 0.67308,0.3984 2.08775,0.5977 4.24402,0.5977 l -0.44165,1.3007 -24.22265,0 0.44165,-1.3007 c 2.20312,0 3.7672,-0.2051 4.69226,-0.6153 0.92504,-0.4101 1.65709,-0.9433 2.19616,-1.5996 0.53906,-0.6562 1.24657,-2.2734 2.12256,-4.8516 l 10.51392,-30.9375 c 0.87595,-2.578 1.26926,-4.2011 1.17993,-4.8691 -0.0894,-0.6679 -0.46474,-1.2011 -1.1261,-1.5996 -0.6614,-0.3984 -2.08193,-0.5976 -4.2616,-0.5977 l 0.44165,-1.3007 20.77735,0 c 6.8437,0 11.33967,1.2188 13.48791,3.6562 2.14814,2.4375 2.60114,5.4844 1.35901,9.1406 -1.05181,3.0938 -2.91289,5.7422 -5.58325,7.9453 -2.67046,2.2032 -5.82866,3.7032 -9.47461,4.5 -2.4639,0.5626 -6.40286,0.8438 -11.81689,0.8438 l 0,0 z m 7.93213,-23.3438 -7.00049,20.6016 c 0.75729,0.047 1.33517,0.07 1.73364,0.07 2.85934,0 5.35104,-0.8496 7.4751,-2.5488 2.12398,-1.6992 3.7917,-4.3301 5.00317,-7.8926 1.20259,-3.539 1.30916,-6.1289 0.3197,-7.7695 -0.98954,-1.6406 -3.01945,-2.4609 -6.08972,-2.461 l -1.4414,0 z"
     transform="translate(-232.16153,-594.61334)"
     id="flowRoot4525"
     style="font-size:80px" />
  <path
     d="m 519.94958,661.20449 16.53553,-15.3457 2.14453,0 -5.21521,15.3457 2.17969,0 -1.23706,3.63868 -2.17969,0 -1.81604,5.34375 -4.83399,0 1.81604,-5.34375 -8.63086,0 1.23706,-3.63868 z m 1.70508,0 6.92578,0 3.19593,-9.40429 -10.12171,9.40429 z"
     transform="translate(-50,21)"
     id="flowRoot4542"
     style="font-size:40px" />
  <path
     d="m 691.82739,1244.6128 -3.49487,10.2813 c -0.68133,2.0052 -0.98724,3.2675 -0.91773,3.7871 0.0695,0.5195 0.366,0.9342 0.88953,1.2441 0.5235,0.3099 1.6238,0.4649 3.3009,0.4649 l -0.3435,1.0117 -18.83984,0 0.3435,-1.0117 c 1.71354,0 2.93005,-0.1596 3.64954,-0.4786 0.71947,-0.319 1.28885,-0.7337 1.70813,-1.2441 0.41926,-0.5104 0.96955,-1.7682 1.65088,-3.7734 l 8.17749,-24.0625 c 0.68129,-2.0052 0.9872,-3.2676 0.91772,-3.7872 -0.0695,-0.5194 -0.36147,-0.9342 -0.87585,-1.2441 -0.51442,-0.3099 -1.61928,-0.4648 -3.31458,-0.4648 l 0.34351,-1.0118 16.16015,0 c 5.32288,10e-5 8.81975,0.948 10.4906,2.8438 1.67078,1.8959 2.02311,4.2656 1.05701,7.1094 -0.81807,2.4062 -2.26558,4.4661 -4.34253,6.1797 -2.07702,1.7135 -4.5334,2.8802 -7.36914,3.5 -1.91637,0.4375 -4.98,0.6562 -9.19092,0.6562 l 0,0 z m 6.16944,-18.1562 -5.44483,16.0234 c 0.58901,0.036 1.03847,0.055 1.34839,0.055 2.22393,0 4.16192,-0.6608 5.81397,-1.9824 1.65198,-1.3216 2.9491,-3.3679 3.89135,-6.1387 0.93535,-2.7526 1.01824,-4.7669 0.24866,-6.043 -0.76964,-1.276 -2.34846,-1.914 -4.73645,-1.914 l -1.12109,0 z"
     transform="translate(-58.98462,-664.09054)"
     id="flowRoot4568"
     style="font-size:54px;font-family:Times New Roman" />
  <path
     d="m 526.5658,645.16187 8.68164,0 -2.57972,3.52735 -7.30078,0 -1.32446,1.8457 c 3.10464,0.1185 5.25825,0.90235 6.46082,2.35156 0.98891,1.19402 1.18117,2.6797 0.57678,4.45703 -0.38682,1.13933 -1.08892,2.25359 -2.10633,3.34278 -1.01742,1.08919 -2.21385,1.92773 -3.58929,2.51562 -1.37546,0.58789 -2.765,0.88184 -4.16864,0.88184 -1.51302,0 -2.57914,-0.28256 -3.19836,-0.84766 -0.42896,-0.40104 -0.55656,-0.85677 -0.38282,-1.36719 0.13273,-0.39192 0.39834,-0.73828 0.79682,-1.03906 0.39847,-0.30078 0.79368,-0.45117 1.18561,-0.45117 0.35546,0 0.69071,0.0729 1.00573,0.21875 0.31502,0.14584 0.80949,0.52865 1.4834,1.14844 0.42553,0.38281 0.81404,0.64713 1.16553,0.79297 0.24552,0.10937 0.54601,0.16406 0.90149,0.16406 0.74738,0 1.47598,-0.27344 2.18579,-0.82031 0.70979,-0.54688 1.19485,-1.20313 1.4552,-1.96875 0.54515,-1.60417 0.18598,-2.90755 -1.07752,-3.91016 -1.26351,-1.0026 -3.11662,-1.5039 -5.55932,-1.50391 -0.2461,10e-6 -0.61666,0.005 -1.1117,0.0137 l 6.50013,-9.35156 z"
     transform="translate(118.17691,-55.477202)"
     id="flowRoot4576"
     style="font-size:40px" />
  <path
     d="m 688.85205,1240.5253 -2.9956,8.8125 c -0.584,1.7187 -0.84621,2.8007 -0.78663,3.2461 0.0596,0.4453 0.31371,0.8007 0.76246,1.0664 0.44871,0.2656 1.39182,0.3984 2.82934,0.3984 l -0.29443,0.8672 -16.14844,0 0.29443,-0.8672 c 1.46875,0 2.51147,-0.1367 3.12818,-0.4102 0.61669,-0.2734 1.10473,-0.6289 1.46411,-1.0664 0.35937,-0.4375 0.83105,-1.5156 1.41504,-3.2343 l 7.00928,-20.625 c 0.58396,-1.7188 0.84617,-2.8008 0.78662,-3.2461 -0.0596,-0.4453 -0.30983,-0.8008 -0.75074,-1.0664 -0.44093,-0.2656 -1.38795,-0.3984 -2.84106,-0.3985 l 0.29443,-0.8672 13.85157,0 c 4.56247,10e-5 7.55978,0.8126 8.99194,2.4375 1.43209,1.6251 1.73409,3.6563 0.906,6.0938 -0.7012,2.0625 -1.94192,3.8281 -3.72216,5.2969 -1.78031,1.4687 -3.88577,2.4687 -6.31641,3 -1.6426,0.375 -4.26858,0.5625 -7.87793,0.5625 l 0,0 z m 5.28809,-15.5625 -4.667,13.7343 c 0.50487,0.031 0.89012,0.047 1.15577,0.047 1.90622,0 3.56736,-0.5664 4.98339,-1.6992 1.41599,-1.1328 2.52781,-2.8867 3.33545,-5.2617 0.80173,-2.3594 0.87278,-4.0859 0.21314,-5.1797 -0.6597,-1.0937 -2.01297,-1.6406 -4.05982,-1.6406 l -0.96093,0 z"
     transform="translate(-195.61304,-1165.101)"
     id="flowRoot4585"
     style="font-size:54px;font-family:Times New Roman" />
  <path
     d="m 528.66974,651.55325 c -0.49415,1.45378 -1.1595,2.81087 -1.99603,4.07128 -0.50624,0.77344 -1.04928,1.40723 -1.62912,1.90137 -0.57987,0.49414 -1.18042,0.88623 -1.80167,1.17627 -0.62126,0.29004 -1.23983,0.43506 -1.85571,0.43506 -0.70183,0 -1.27475,-0.17904 -1.71875,-0.53711 -0.44402,-0.35807 -0.77143,-0.87012 -0.98224,-1.53613 -0.1495,-0.48698 -0.205,-1.13509 -0.16651,-1.94434 0.0644,-1.0957 0.29519,-2.22721 0.6922,-3.39453 0.53756,-1.58267 1.25348,-3.03645 2.14777,-4.36133 0.73762,-1.09569 1.57809,-1.93537 2.52139,-2.51904 0.94329,-0.58364 1.83031,-0.87547 2.66104,-0.87549 0.84504,2e-5 1.53657,0.28826 2.07459,0.86475 0.53799,0.57651 0.81348,1.35174 0.82648,2.32568 0.0246,1.3392 -0.23321,2.80372 -0.77344,4.39356 l 0,0 z m -3.30121,-0.0215 c 0.86608,-2.54947 1.35664,-4.03547 1.47168,-4.45801 0.26675,-0.99543 0.3236,-1.6686 0.17053,-2.01953 -0.10116,-0.22915 -0.35226,-0.34373 -0.75329,-0.34375 -0.30796,2e-5 -0.58054,0.086 -0.81775,0.25781 -0.35003,0.25067 -0.67934,0.69289 -0.98795,1.32666 -0.30862,0.63381 -1.10656,2.8449 -2.39383,6.63331 -0.70093,2.0625 -1.09906,3.44466 -1.19439,4.14648 -0.0654,0.50846 -0.027,0.84863 0.11514,1.02051 0.1421,0.17187 0.37787,0.25781 0.7073,0.25781 0.35807,0 0.66557,-0.11458 0.92249,-0.34375 0.43684,-0.40104 0.81908,-1.02051 1.14673,-1.8584 l 1.61334,-4.61914 z"
     transform="translate(-19.45151,-560.48762)"
     id="flowRoot4593"
     style="font-size:40px" />
  <path
     d="m 552.87891,76.620364 24.03808,0 0,2.856445 -24.03808,0 0,-2.856445 z m 0,7.185058 24.03808,0 0,2.856446 -24.03808,0 0,-2.856446 z m 56.8872,-2.219238 c -2e-5,2.973645 -0.4175,5.749521 -1.25244,8.327637 -0.49806,1.582036 -1.16823,2.878421 -2.0105,3.88916 -0.8423,1.010744 -1.79811,1.812745 -2.86743,2.406006 -1.06935,0.593261 -2.2339,0.889892 -3.49365,0.889892 -1.43556,0 -2.73194,-0.366211 -3.88916,-1.098633 -1.15723,-0.73242 -2.18262,-1.779782 -3.07617,-3.142089 -0.64454,-0.99609 -1.2085,-2.321772 -1.6919,-3.977051 -0.62988,-2.241201 -0.94482,-4.555652 -0.94482,-6.94336 0,-3.237286 0.4541,-6.210916 1.3623,-8.920898 0.74707,-2.241185 1.88232,-3.958713 3.40577,-5.152588 1.52343,-1.193818 3.13475,-1.790741 4.83398,-1.790771 1.7285,3e-5 3.34349,0.589629 4.84497,1.768798 1.50145,1.179227 2.60374,2.764919 3.30689,4.757081 0.98142,2.739278 1.47214,5.734881 1.47216,8.986816 l 0,0 z m -6.76757,-0.04395 c -2e-5,-5.214824 -0.0293,-8.254372 -0.0879,-9.118653 -0.14649,-2.036106 -0.49806,-3.413058 -1.05468,-4.130859 -0.36623,-0.468721 -0.95949,-0.703096 -1.77979,-0.703125 -0.62989,2.9e-5 -1.12794,0.17581 -1.49414,0.527344 -0.542,0.512723 -0.90821,1.417263 -1.09863,2.713623 -0.19044,1.296411 -0.28565,5.819111 -0.28565,13.568115 0,4.218758 0.14648,7.045903 0.43946,8.481445 0.21971,1.040042 0.53466,1.735842 0.94482,2.087403 0.41015,0.351563 0.95214,0.527344 1.62598,0.527343 0.73241,1e-6 1.28172,-0.234373 1.64795,-0.703125 0.61522,-0.82031 0.96678,-2.087398 1.05468,-3.801269 l 0.0879,-9.448242 z"
     transform="translate(-32,-7)"
     id="flowRoot4601"
     style="font-size:48px;font-family:Times New Roman" />
  <path
     d="m 218.19295,675.07019 c 0,0.83641 -0.67882,1.51523 -1.51523,1.51523 -0.83641,0 -1.51523,-0.67882 -1.51523,-1.51523 0,-0.83641 0.67882,-1.51523 1.51523,-1.51523 0.83641,0 1.51523,0.67882 1.51523,1.51523 z"
     transform="matrix(9.2395283,0,0,9.2395283,-1172.8124,-5060.4207)"
     id="path5474"
     style="color:#000000;fill:#0078cb;fill-opacity:1;fill-rule:nonzero;stroke:none;stroke-width:1.20000005;marker:none;visibility:visible;display:inline;overflow:visible" />
  <path
     d="m 218.19295,675.07019 c 0,0.83641 -0.67882,1.51523 -1.51523,1.51523 -0.83641,0 -1.51523,-0.67882 -1.51523,-1.51523 0,-0.83641 0.67882,-1.51523 1.51523,-1.51523 0.83641,0 1.51523,0.67882 1.51523,1.51523 z"
     transform="matrix(7.5896125,0,0,7.5896125,-1249.8124,-4224.6117)"
     id="path4618"
     style="color:#000000;fill:#0078cb;fill-opacity:1;fill-rule:nonzero;stroke:none;stroke-width:1.20000005;marker:none;visibility:visible;display:inline;overflow:visible" />
  <path
     d="m 218.19295,675.07019 c 0,0.83641 -0.67882,1.51523 -1.51523,1.51523 -0.83641,0 -1.51523,-0.67882 -1.51523,-1.51523 0,-0.83641 0.67882,-1.51523 1.51523,-1.51523 0.83641,0 1.51523,0.67882 1.51523,1.51523 z"
     transform="matrix(7.2596293,0,0,7.2596293,-1323.8124,-4097.3499)"
     id="path4620"
     style="color:#000000;fill:#0078cb;fill-opacity:1;fill-rule:nonzero;stroke:none;stroke-width:1.20000005;marker:none;visibility:visible;display:inline;overflow:visible" />
  <path
     d="m 218.19295,675.07019 c 0,0.83641 -0.67882,1.51523 -1.51523,1.51523 -0.83641,0 -1.51523,-0.67882 -1.51523,-1.51523 0,-0.83641 0.67882,-1.51523 1.51523,-1.51523 0.83641,0 1.51523,0.67882 1.51523,1.51523 z"
     transform="matrix(6.2696799,0,0,6.2696799,-931.81243,-3511.5646)"
     id="path4622"
     style="color:#000000;fill:#0078cb;fill-opacity:1;fill-rule:nonzero;stroke:none;stroke-width:1.20000005;marker:none;visibility:visible;display:inline;overflow:visible" />
  <path
     d="m 218.19295,675.07019 c 0,0.83641 -0.67882,1.51523 -1.51523,1.51523 -0.83641,0 -1.51523,-0.67882 -1.51523,-1.51523 0,-0.83641 0.67882,-1.51523 1.51523,-1.51523 0.83641,0 1.51523,0.67882 1.51523,1.51523 z"
     transform="matrix(5.6097136,0,0,5.6097136,-542.31245,-3183.5409)"
     id="path4624"
     style="color:#000000;fill:#0078cb;fill-opacity:1;fill-rule:nonzero;stroke:none;stroke-width:1.20000005;marker:none;visibility:visible;display:inline;overflow:visible" />
  <path
     d="m 218.19295,675.07019 c 0,0.83641 -0.67882,1.51523 -1.51523,1.51523 -0.83641,0 -1.51523,-0.67882 -1.51523,-1.51523 0,-0.83641 0.67882,-1.51523 1.51523,-1.51523 0.83641,0 1.51523,0.67882 1.51523,1.51523 z"
     transform="matrix(3.9597978,0,0,3.9597978,-321.37312,-2565.4746)"
     id="path4626"
     style="color:#000000;fill:#0078cb;fill-opacity:1;fill-rule:nonzero;stroke:none;stroke-width:1.20000005;marker:none;visibility:visible;display:inline;overflow:visible" />
  <path
     d="M 77.158203,150.07535 75.082031,128.4191 c -0.306002,-3.27081 -0.669934,-5.28122 -1.091797,-6.03125 -0.421886,-0.74997 -1.062511,-1.27081 -1.921875,-1.5625 l 0.392579,-1.15625 15.53125,0 -0.392579,1.15625 c -1.03518,0.0417 -1.821312,0.23961 -2.358398,0.59375 -0.537132,0.35419 -0.890322,0.78128 -1.05957,1.28125 -0.269554,0.79169 -0.27997,2.35419 -0.03125,4.6875 l 1.113281,11.4375 6.412109,-8.84375 c 2.298145,-3.14581 3.656217,-5.33331 4.074219,-6.5625 0.261685,-0.77081 0.215135,-1.38539 -0.139648,-1.84375 -0.354851,-0.45831 -1.170931,-0.7083 -2.448243,-0.75 l 0.392579,-1.15625 9.781252,0 -0.39258,1.15625 c -0.99353,0.1042 -1.90043,0.47399 -2.7207,1.10938 -0.820354,0.63544 -2.565144,2.79689 -5.234379,6.48437 l -15.705078,21.65625 c -3.944024,5.41666 -6.639333,8.74999 -8.085937,10 -2.031258,1.74999 -4.130214,2.62499 -6.296875,2.625 -1.729168,-10e-6 -2.96224,-0.4948 -3.699219,-1.48437 -0.736978,-0.9896 -0.868488,-2.18231 -0.394531,-3.57813 0.411459,-1.20834 1.121419,-2.20834 2.129882,-3 1.008462,-0.79167 2.054359,-1.1875 3.137696,-1.1875 1.041661,0 1.766921,0.33333 2.175781,1 0.408848,0.66666 0.386712,1.69791 -0.06641,3.09375 -0.248704,0.79166 -0.328782,1.30207 -0.240235,1.53125 0.08984,0.22916 0.29101,0.34374 0.603516,0.34375 0.499993,-10e-6 1.133456,-0.30209 1.900391,-0.90625 1.1315,-0.87501 2.790353,-2.87501 4.976562,-6 l 1.734375,-2.4375 z m 122.365237,-19.09375 1.79101,9.625 c 0.61065,3.35417 1.27406,5.47917 1.99024,6.375 0.39971,0.47917 1.082,0.73958 2.04687,0.78125 l -0.38281,1.125 -16.28125,0 0.38281,-1.125 c 1.30598,-0.10416 2.14907,-0.27083 2.5293,-0.5 0.38019,-0.22916 0.63735,-0.54166 0.77148,-0.9375 0.1979,-0.58333 0.17577,-1.5 -0.0664,-2.75 l -0.91602,-4.75 -3.22851,3.15625 c -1.46746,1.43751 -2.30991,2.29167 -2.52735,2.5625 -0.30079,0.39584 -0.50457,0.75 -0.61133,1.0625 -0.16277,0.47917 -0.2002,0.88021 -0.1123,1.20313 0.0879,0.32291 0.27733,0.5625 0.56836,0.71875 0.291,0.15625 0.89484,0.23437 1.81152,0.23437 l -0.38281,1.125 -11.4375,0 0.38281,-1.125 c 1.41667,0 2.84635,-0.39062 4.28907,-1.17187 1.4427,-0.78125 3.85155,-2.82812 7.22656,-6.14063 l 3.61719,-3.5625 -1.86719,-9.3125 c -0.612,-3.04164 -1.20737,-4.90622 -1.78614,-5.59375 -0.57878,-0.68747 -1.35385,-1.07289 -2.32519,-1.15625 l 0.39258,-1.15625 16.1875,0 -0.39258,1.15625 -0.85547,0.0312 -1.81445,0.5625 c -0.21617,0.14586 -0.38089,0.38544 -0.49414,0.71875 -0.1068,0.31253 -0.16474,0.63544 -0.17383,0.96875 0.013,0.14586 0.11326,0.70836 0.30078,1.6875 l 0.83789,4.25 1.75977,-1.6875 c 2.44658,-2.29164 3.82549,-3.89581 4.13672,-4.8125 0.1484,-0.43747 0.0918,-0.80726 -0.16993,-1.10937 -0.26175,-0.30206 -0.84378,-0.50518 -1.74609,-0.60938 l 0.39258,-1.15625 10.34375,0 -0.39258,1.15625 c -1.28519,0.0417 -2.60551,0.43232 -3.96094,1.17188 -1.3555,0.7396 -3.08206,2.1719 -5.17969,4.29687 l -4.65429,4.6875 z m 122.01953,-25.34375 -11.7793,34.65625 c -0.88414,2.60417 -1.334,4.26563 -1.34961,4.98438 -0.0156,0.71875 0.26333,1.30729 0.83692,1.76562 0.57354,0.45834 1.66241,0.6875 3.2666,0.6875 l 0.96875,0 -0.39258,1.15625 -22.3125,0 0.39258,-1.15625 1.125,0 c 1.81249,0 3.17512,-0.20833 4.08789,-0.625 0.91275,-0.41666 1.62824,-0.98958 2.14648,-1.71875 0.51822,-0.72916 1.23046,-2.42708 2.13672,-5.09375 l 7.4668,-21.96875 c 0.66534,-1.9583 0.98761,-3.18226 0.9668,-3.67187 -0.0209,-0.48955 -0.22822,-0.90622 -0.62207,-1.25 -0.39391,-0.34372 -0.92418,-0.51559 -1.59082,-0.51563 -1.06252,4e-5 -2.46747,0.33337 -4.21485,1 l -0.17969,-1.125 18.01563,-7.125 1.03125,0 z"
     transform="translate(8.727921,72.568539)"
     id="flowRoot5602"
     style="font-size:64px;font-style:italic;font-weight:bold;font-family:Times New Roman" />
  <path
     d="m 793.40625,1347.1869 -14.02734,0 0.13183,-0.3867 c 6.04101,-5.1211 9.82213,-8.5664 11.34339,-10.3359 1.52122,-1.7696 2.56858,-3.4981 3.14209,-5.1856 0.41819,-1.2304 0.38487,-2.2529 -0.1,-3.0674 -0.48488,-0.8144 -1.27809,-1.2216 -2.37964,-1.2216 -1.8047,0 -3.51197,0.9023 -5.12182,2.707 l -0.57239,-0.2285 c 1.39745,-2.25 2.924,-3.9141 4.57965,-4.9922 1.65562,-1.0781 3.32719,-1.6172 5.01471,-1.6172 1.20701,0 2.21299,0.2813 3.01794,0.8437 0.80491,0.5626 1.32219,1.3331 1.55182,2.3116 0.22959,0.9785 0.19938,1.8955 -0.0906,2.7509 -0.53029,1.5587 -1.50185,3.1407 -2.91467,4.7461 -1.92043,2.168 -5.53163,5.1914 -10.83362,9.0703 l 5.15039,0 c 1.26561,10e-5 2.1068,-0.053 2.52356,-0.1582 0.41674,-0.1054 0.79082,-0.2841 1.12226,-0.5361 0.3314,-0.2519 0.83402,-0.7822 1.50787,-1.5908 l 0.63281,0 -3.67822,6.8906 z"
     transform="translate(-662.21149,-1152.9871)"
     id="flowRoot5618"
     style="font-size:36px" />
  <path
     d="m 787.88892,1335.2338 0.20874,-0.6152 c 1.46703,-0.3867 2.51512,-0.7471 3.14428,-1.0811 0.62914,-0.334 1.24767,-0.8437 1.85559,-1.5293 0.6079,-0.6855 1.0316,-1.3799 1.27112,-2.083 0.33031,-0.9726 0.25945,-1.8076 -0.21258,-2.5049 -0.47206,-0.6972 -1.23543,-1.0459 -2.2901,-1.0459 -1.64064,0 -3.32997,0.8672 -5.068,2.6016 l -0.57238,-0.2285 c 1.50878,-1.957 3.08971,-3.4277 4.74279,-4.4121 1.65307,-0.9844 3.2882,-1.4766 4.9054,-1.4766 1.65232,0 2.84324,0.5039 3.57275,1.5117 0.72947,1.0078 0.86534,2.1856 0.4076,3.5332 -0.29885,0.8789 -0.83572,1.7256 -1.6106,2.5401 -0.77492,0.8144 -1.80104,1.5322 -3.07837,2.1533 1.14403,0.668 1.91014,1.4912 2.29834,2.4697 0.38817,0.9785 0.3314,2.2061 -0.17029,3.6826 -0.8445,2.4844 -2.46187,4.5967 -4.85211,6.3369 -2.39027,1.7403 -5.09711,2.6104 -8.12054,2.6104 -2.01563,0 -3.37281,-0.334 -4.07154,-1.002 -0.5083,-0.4687 -0.6372,-1.0722 -0.38672,-1.8105 0.18311,-0.5391 0.53284,-0.999 1.0492,-1.3799 0.51635,-0.3809 1.02648,-0.5713 1.53039,-0.5713 0.38672,0 0.72217,0.082 1.00635,0.2461 0.15527,0.094 0.64599,0.6065 1.47217,1.5381 0.82616,0.9316 1.7373,1.3975 2.7334,1.3975 0.86718,0 1.72777,-0.3428 2.58179,-1.0284 0.85399,-0.6855 1.46007,-1.5556 1.81823,-2.6103 0.54564,-1.6055 0.48595,-3.085 -0.17907,-4.4385 -0.66506,-1.3535 -1.99367,-2.2881 -3.98584,-2.8037 l 0,0 z"
     transform="translate(-551.22214,-1151.641)"
     id="flowRoot5626"
     style="font-size:36px" />
  <path
     d="m 97.25,-195.36215 34.1875,0 0,4.0625 -34.1875,0 0,-4.0625 z m 0,10.21875 34.1875,0 0,4.0625 -34.1875,0 0,-4.0625 z"
     transform="translate(44,396)"
     id="flowRoot5991"
     style="font-size:24px;font-weight:bold;font-family:Times New Roman" />
  <path
     d="m 81.25,-190.36215 15.03125,0 0,-15 4.09375,0 0,15 15.03125,0 0,4.125 -15.03125,0 0,14.875 -4.09375,0 0,-14.875 -15.03125,0 0,-4.125 z"
     transform="translate(165.94589,394.08268)"
     id="flowRoot5999"
     style="font-size:24px;font-weight:bold;font-family:Times New Roman" />
</svg>
